# xmcd CD database file
#
# Track frame offsets:
#	150
#	13538
#	28398
#	39762
#	52656
#	65849
#	78512
#	91813
#	108087
#	122100
#	135048
#	153552
#	169058
#	182130
#	196641
#	212013
#	225977
#	238723
#	251292
#	263750
#
# Disc length: 3732 seconds
#
# Revision: 0
# Processed by: cddbd v1.5.1PL2 Copyright (c) Steve Scherf et al.
# Submitted via: CDex 1.60beta1
#
DISCID=f20e9214
DTITLE=Various Artist - Ladies of Song Vulume 1
DYEAR=2005
DGENRE=Jazz
TTITLE0=A hundred years from today - Sarah Vaughan
TTITLE1=Aggravatin' Papa - Bessie Smith
TTITLE2=Ain't it the truth - Lena Horne
TTITLE3=All or nothing - Dinah Washington
TTITLE4=All too soon - Sarah Vaughan
TTITLE5=Am I asking too much? - Dinah Washington
TTITLE6=Baby won't you please come home - Bessie Smith
TTITLE7=I cover the waterfront - Sarah Vaughan
TTITLE8=Blessing hearted blues - Bessie Smith
TTITLE9=Blues for a day - Dinah Washington
TTITLE10=Body and soul - Sarah Vaughan
TTITLE11=Down hearted blues - Bessie Smith
TTITLE12=Embraceable you - Dinah Washington
TTITLE13=Frosty morning Blues - Bessie Smith
TTITLE14=Good for Nothin' Joe - Lena horne
TTITLE15=Gulf coast blues - Bessie Smith
TTITLE16=Honeysuckle rose - Lena Horne
TTITLE17=I can make you love me - Sarah Vaughan
TTITLE18=I can't get started - Dinah Washington
TTITLE19=Beale Street Mamma - Bessie Smith
EXTD=YEAR: 2005
EXTT0=
EXTT1=
EXTT2=
EXTT3=
EXTT4=
EXTT5=
EXTT6=
EXTT7=
EXTT8=
EXTT9=
EXTT10=
EXTT11=
EXTT12=
EXTT13=
EXTT14=
EXTT15=
EXTT16=
EXTT17=
EXTT18=
EXTT19=
PLAYORDER=
